<mxfile host="Electron" modified="2024-07-29T17:52:19.714Z" agent="Mozilla/5.0 (Windows NT 10.0; Win64; x64) AppleWebKit/537.36 (KHTML, like Gecko) draw.io/24.6.4 Chrome/124.0.6367.207 Electron/30.0.6 Safari/537.36" etag="KEQMnHQeEP6shxyEnwqh" version="24.6.4" type="device">
  <diagram name="Page-1" id="s73oU9rGItFyqEL11p0O">
    <mxGraphModel dx="1574" dy="434" grid="1" gridSize="10" guides="1" tooltips="1" connect="1" arrows="1" fold="1" page="1" pageScale="1" pageWidth="850" pageHeight="1100" math="0" shadow="0">
      <root>
        <mxCell id="0" />
        <mxCell id="1" parent="0" />
        <mxCell id="CrKe2ClXHblvtk4IgaAa-22" value="" style="group;movable=0;resizable=0;rotatable=0;deletable=0;editable=0;locked=1;connectable=0;" parent="1" vertex="1" connectable="0">
          <mxGeometry x="187.5" y="89.99999999999999" width="250" height="170" as="geometry" />
        </mxCell>
        <mxCell id="CrKe2ClXHblvtk4IgaAa-1" value="" style="rounded=0;whiteSpace=wrap;html=1;rotation=90;" parent="CrKe2ClXHblvtk4IgaAa-22" vertex="1">
          <mxGeometry x="40" y="-39.999999999999986" width="170" height="250" as="geometry" />
        </mxCell>
        <mxCell id="CrKe2ClXHblvtk4IgaAa-2" value="" style="ellipse;whiteSpace=wrap;html=1;aspect=fixed;" parent="CrKe2ClXHblvtk4IgaAa-22" vertex="1">
          <mxGeometry x="2.5" y="1.4210854715202004e-14" width="40" height="40" as="geometry" />
        </mxCell>
        <mxCell id="CrKe2ClXHblvtk4IgaAa-3" value="" style="ellipse;whiteSpace=wrap;html=1;aspect=fixed;" parent="CrKe2ClXHblvtk4IgaAa-22" vertex="1">
          <mxGeometry x="2.5" y="40.000000000000014" width="40" height="40" as="geometry" />
        </mxCell>
        <mxCell id="CrKe2ClXHblvtk4IgaAa-4" value="" style="ellipse;whiteSpace=wrap;html=1;aspect=fixed;" parent="CrKe2ClXHblvtk4IgaAa-22" vertex="1">
          <mxGeometry x="2.5" y="90.00000000000001" width="40" height="40" as="geometry" />
        </mxCell>
        <mxCell id="CrKe2ClXHblvtk4IgaAa-5" value="" style="ellipse;whiteSpace=wrap;html=1;aspect=fixed;" parent="CrKe2ClXHblvtk4IgaAa-22" vertex="1">
          <mxGeometry x="2.5" y="130" width="40" height="40" as="geometry" />
        </mxCell>
        <mxCell id="CrKe2ClXHblvtk4IgaAa-6" value="" style="ellipse;whiteSpace=wrap;html=1;aspect=fixed;" parent="CrKe2ClXHblvtk4IgaAa-22" vertex="1">
          <mxGeometry x="222.5" y="1.4210854715202004e-14" width="27.5" height="27.5" as="geometry" />
        </mxCell>
        <mxCell id="CrKe2ClXHblvtk4IgaAa-7" value="" style="ellipse;whiteSpace=wrap;html=1;aspect=fixed;" parent="CrKe2ClXHblvtk4IgaAa-22" vertex="1">
          <mxGeometry x="222.5" y="27.500000000000014" width="27.5" height="27.5" as="geometry" />
        </mxCell>
        <mxCell id="CrKe2ClXHblvtk4IgaAa-8" value="" style="ellipse;whiteSpace=wrap;html=1;aspect=fixed;" parent="CrKe2ClXHblvtk4IgaAa-22" vertex="1">
          <mxGeometry x="222.5" y="55.000000000000014" width="27.5" height="27.5" as="geometry" />
        </mxCell>
        <mxCell id="CrKe2ClXHblvtk4IgaAa-9" value="" style="ellipse;whiteSpace=wrap;html=1;aspect=fixed;" parent="CrKe2ClXHblvtk4IgaAa-22" vertex="1">
          <mxGeometry x="222.5" y="87.50000000000001" width="27.5" height="27.5" as="geometry" />
        </mxCell>
        <mxCell id="CrKe2ClXHblvtk4IgaAa-10" value="" style="ellipse;whiteSpace=wrap;html=1;aspect=fixed;" parent="CrKe2ClXHblvtk4IgaAa-22" vertex="1">
          <mxGeometry x="222.5" y="115.00000000000001" width="27.5" height="27.5" as="geometry" />
        </mxCell>
        <mxCell id="CrKe2ClXHblvtk4IgaAa-11" value="" style="ellipse;whiteSpace=wrap;html=1;aspect=fixed;" parent="CrKe2ClXHblvtk4IgaAa-22" vertex="1">
          <mxGeometry x="222.5" y="142.5" width="27.5" height="27.5" as="geometry" />
        </mxCell>
        <mxCell id="CrKe2ClXHblvtk4IgaAa-12" value="&lt;font style=&quot;font-size: 14px;&quot;&gt;&lt;b&gt;+&lt;/b&gt;&lt;/font&gt;" style="text;html=1;align=center;verticalAlign=middle;whiteSpace=wrap;rounded=0;" parent="CrKe2ClXHblvtk4IgaAa-22" vertex="1">
          <mxGeometry x="42.5" y="45.000000000000014" width="60" height="30" as="geometry" />
        </mxCell>
        <mxCell id="CrKe2ClXHblvtk4IgaAa-13" value="&lt;font style=&quot;font-size: 14px;&quot;&gt;&lt;b&gt;-&lt;/b&gt;&lt;/font&gt;" style="text;html=1;align=center;verticalAlign=middle;whiteSpace=wrap;rounded=0;" parent="CrKe2ClXHblvtk4IgaAa-22" vertex="1">
          <mxGeometry x="42.5" y="95.00000000000001" width="60" height="30" as="geometry" />
        </mxCell>
        <mxCell id="CrKe2ClXHblvtk4IgaAa-14" value="&lt;font style=&quot;font-size: 14px;&quot;&gt;&lt;b&gt;+&lt;/b&gt;&lt;/font&gt;" style="text;html=1;align=center;verticalAlign=middle;whiteSpace=wrap;rounded=0;" parent="CrKe2ClXHblvtk4IgaAa-22" vertex="1">
          <mxGeometry x="42.5" y="5.000000000000014" width="60" height="30" as="geometry" />
        </mxCell>
        <mxCell id="CrKe2ClXHblvtk4IgaAa-15" value="&lt;font style=&quot;font-size: 14px;&quot;&gt;&lt;b&gt;-&lt;/b&gt;&lt;/font&gt;" style="text;html=1;align=center;verticalAlign=middle;whiteSpace=wrap;rounded=0;" parent="CrKe2ClXHblvtk4IgaAa-22" vertex="1">
          <mxGeometry x="42.5" y="135" width="60" height="30" as="geometry" />
        </mxCell>
        <mxCell id="CrKe2ClXHblvtk4IgaAa-16" value="&lt;code&gt;VCC&lt;/code&gt;" style="text;whiteSpace=wrap;html=1;align=center;" parent="CrKe2ClXHblvtk4IgaAa-22" vertex="1">
          <mxGeometry x="192.5" y="1.4210854715202004e-14" width="20" height="20" as="geometry" />
        </mxCell>
        <mxCell id="CrKe2ClXHblvtk4IgaAa-17" value="&lt;code&gt;GND&lt;/code&gt;" style="text;whiteSpace=wrap;html=1;align=center;" parent="CrKe2ClXHblvtk4IgaAa-22" vertex="1">
          <mxGeometry x="192.5" y="25.000000000000014" width="20" height="20" as="geometry" />
        </mxCell>
        <mxCell id="CrKe2ClXHblvtk4IgaAa-18" value="&lt;span style=&quot;font-family: monospace;&quot;&gt;CS&lt;/span&gt;" style="text;whiteSpace=wrap;html=1;align=center;" parent="CrKe2ClXHblvtk4IgaAa-22" vertex="1">
          <mxGeometry x="192.5" y="55.000000000000014" width="20" height="20" as="geometry" />
        </mxCell>
        <mxCell id="CrKe2ClXHblvtk4IgaAa-19" value="&lt;span style=&quot;font-family: monospace;&quot;&gt;D1&lt;/span&gt;" style="text;whiteSpace=wrap;html=1;align=center;" parent="CrKe2ClXHblvtk4IgaAa-22" vertex="1">
          <mxGeometry x="192.5" y="91.25000000000001" width="20" height="20" as="geometry" />
        </mxCell>
        <mxCell id="CrKe2ClXHblvtk4IgaAa-20" value="&lt;span style=&quot;font-family: monospace;&quot;&gt;D0&lt;/span&gt;" style="text;whiteSpace=wrap;html=1;align=center;" parent="CrKe2ClXHblvtk4IgaAa-22" vertex="1">
          <mxGeometry x="192.5" y="118.75000000000001" width="20" height="20" as="geometry" />
        </mxCell>
        <mxCell id="CrKe2ClXHblvtk4IgaAa-21" value="&lt;span style=&quot;font-family: monospace;&quot;&gt;CLK&lt;/span&gt;" style="text;whiteSpace=wrap;html=1;align=center;" parent="CrKe2ClXHblvtk4IgaAa-22" vertex="1">
          <mxGeometry x="190" y="145" width="20" height="20" as="geometry" />
        </mxCell>
        <mxCell id="CrKe2ClXHblvtk4IgaAa-87" value="" style="rounded=0;whiteSpace=wrap;html=1;" parent="1" vertex="1">
          <mxGeometry x="187.5" y="350" width="252.5" height="130" as="geometry" />
        </mxCell>
        <mxCell id="CrKe2ClXHblvtk4IgaAa-88" value="" style="ellipse;whiteSpace=wrap;html=1;aspect=fixed;" parent="1" vertex="1">
          <mxGeometry x="187.5" y="360" width="50" height="50" as="geometry" />
        </mxCell>
        <mxCell id="CrKe2ClXHblvtk4IgaAa-89" value="" style="ellipse;whiteSpace=wrap;html=1;aspect=fixed;" parent="1" vertex="1">
          <mxGeometry x="187.5" y="420" width="50" height="50" as="geometry" />
        </mxCell>
        <mxCell id="CrKe2ClXHblvtk4IgaAa-90" value="&lt;h1 style=&quot;box-sizing: inherit; margin: 0px; padding: 0px; border: 0px; font-family: -apple-system, system-ui, BlinkMacSystemFont, &amp;quot;Segoe UI&amp;quot;, Helvetica, Arial, sans-serif, &amp;quot;Apple Color Emoji&amp;quot;, &amp;quot;Segoe UI Emoji&amp;quot;, &amp;quot;Segoe UI Symbol&amp;quot;; font-weight: 400; line-height: 1.2em; text-align: start; background-color: rgb(255, 255, 255);&quot; class=&quot;entry-title&quot;&gt;&lt;font style=&quot;font-size: 30px;&quot;&gt;MAX31865&lt;/font&gt;&lt;/h1&gt;" style="text;html=1;align=center;verticalAlign=middle;whiteSpace=wrap;rounded=0;rotation=90;" parent="1" vertex="1">
          <mxGeometry x="282.5" y="160" width="60" height="30" as="geometry" />
        </mxCell>
        <mxCell id="CrKe2ClXHblvtk4IgaAa-92" style="edgeStyle=orthogonalEdgeStyle;rounded=0;orthogonalLoop=1;jettySize=auto;html=1;exitX=0;exitY=0.5;exitDx=0;exitDy=0;entryX=0;entryY=0.5;entryDx=0;entryDy=0;" parent="1" source="CrKe2ClXHblvtk4IgaAa-91" target="CrKe2ClXHblvtk4IgaAa-89" edge="1">
          <mxGeometry relative="1" as="geometry" />
        </mxCell>
        <mxCell id="CrKe2ClXHblvtk4IgaAa-95" style="edgeStyle=orthogonalEdgeStyle;rounded=0;orthogonalLoop=1;jettySize=auto;html=1;exitX=1;exitY=0.5;exitDx=0;exitDy=0;entryX=0;entryY=0.5;entryDx=0;entryDy=0;" parent="1" source="CrKe2ClXHblvtk4IgaAa-91" target="CrKe2ClXHblvtk4IgaAa-94" edge="1">
          <mxGeometry relative="1" as="geometry">
            <mxPoint x="-10" y="340" as="targetPoint" />
          </mxGeometry>
        </mxCell>
        <mxCell id="CrKe2ClXHblvtk4IgaAa-91" value="" style="pointerEvents=1;verticalLabelPosition=bottom;shadow=0;dashed=0;align=center;html=1;verticalAlign=top;shape=mxgraph.electrical.miscellaneous.batteryStack;rotation=-180;" parent="1" vertex="1">
          <mxGeometry x="20" y="490" width="100" height="60" as="geometry" />
        </mxCell>
        <mxCell id="CrKe2ClXHblvtk4IgaAa-96" style="edgeStyle=orthogonalEdgeStyle;rounded=0;orthogonalLoop=1;jettySize=auto;html=1;exitX=1;exitY=0.5;exitDx=0;exitDy=0;entryX=0;entryY=0.5;entryDx=0;entryDy=0;" parent="1" source="CrKe2ClXHblvtk4IgaAa-94" target="CrKe2ClXHblvtk4IgaAa-88" edge="1">
          <mxGeometry relative="1" as="geometry" />
        </mxCell>
        <mxCell id="CrKe2ClXHblvtk4IgaAa-94" value="20-4mA" style="triangle;whiteSpace=wrap;html=1;" parent="1" vertex="1">
          <mxGeometry x="20" y="280" width="60" height="80" as="geometry" />
        </mxCell>
        <mxCell id="CrKe2ClXHblvtk4IgaAa-98" value="&lt;font style=&quot;font-size: 14px;&quot;&gt;&lt;b&gt;I +&lt;/b&gt;&lt;/font&gt;" style="text;html=1;align=center;verticalAlign=middle;whiteSpace=wrap;rounded=0;" parent="1" vertex="1">
          <mxGeometry x="237.5" y="370" width="60" height="30" as="geometry" />
        </mxCell>
        <mxCell id="CrKe2ClXHblvtk4IgaAa-99" value="&lt;font style=&quot;font-size: 14px;&quot;&gt;&lt;b&gt;I -&lt;/b&gt;&lt;/font&gt;" style="text;html=1;align=center;verticalAlign=middle;whiteSpace=wrap;rounded=0;" parent="1" vertex="1">
          <mxGeometry x="237.5" y="430" width="60" height="30" as="geometry" />
        </mxCell>
        <mxCell id="CrKe2ClXHblvtk4IgaAa-100" value="12/24V" style="text;html=1;align=center;verticalAlign=middle;whiteSpace=wrap;rounded=0;" parent="1" vertex="1">
          <mxGeometry x="40" y="550" width="60" height="30" as="geometry" />
        </mxCell>
        <mxCell id="CrKe2ClXHblvtk4IgaAa-101" value="" style="ellipse;whiteSpace=wrap;html=1;aspect=fixed;" parent="1" vertex="1">
          <mxGeometry x="400" y="350" width="40" height="40" as="geometry" />
        </mxCell>
        <mxCell id="CrKe2ClXHblvtk4IgaAa-102" value="" style="ellipse;whiteSpace=wrap;html=1;aspect=fixed;" parent="1" vertex="1">
          <mxGeometry x="400" y="395" width="40" height="40" as="geometry" />
        </mxCell>
        <mxCell id="CrKe2ClXHblvtk4IgaAa-103" value="" style="ellipse;whiteSpace=wrap;html=1;aspect=fixed;" parent="1" vertex="1">
          <mxGeometry x="400" y="440" width="40" height="40" as="geometry" />
        </mxCell>
        <mxCell id="CrKe2ClXHblvtk4IgaAa-105" value="&lt;span style=&quot;font-family: monospace;&quot;&gt;VCC&lt;/span&gt;" style="text;whiteSpace=wrap;html=1;align=center;" parent="1" vertex="1">
          <mxGeometry x="370" y="360" width="20" height="20" as="geometry" />
        </mxCell>
        <mxCell id="CrKe2ClXHblvtk4IgaAa-106" value="&lt;span style=&quot;font-family: monospace;&quot;&gt;VOUT&lt;/span&gt;" style="text;whiteSpace=wrap;html=1;align=center;" parent="1" vertex="1">
          <mxGeometry x="370" y="400" width="20" height="20" as="geometry" />
        </mxCell>
        <mxCell id="CrKe2ClXHblvtk4IgaAa-107" value="&lt;span style=&quot;font-family: monospace;&quot;&gt;GND&lt;/span&gt;" style="text;whiteSpace=wrap;html=1;align=center;" parent="1" vertex="1">
          <mxGeometry x="370" y="445" width="20" height="20" as="geometry" />
        </mxCell>
        <mxCell id="CrKe2ClXHblvtk4IgaAa-108" value="&lt;font style=&quot;font-size: 30px;&quot;&gt;Current Loop&lt;/font&gt;" style="text;html=1;align=center;verticalAlign=middle;whiteSpace=wrap;rounded=0;fontFamily=Helvetica;fontSize=12;fontColor=default;rotation=90;" parent="1" vertex="1">
          <mxGeometry x="290" y="395" width="60" height="30" as="geometry" />
        </mxCell>
        <mxCell id="CrKe2ClXHblvtk4IgaAa-110" value="" style="group;movable=0;resizable=0;rotatable=0;deletable=0;editable=0;locked=1;connectable=0;" parent="1" vertex="1" connectable="0">
          <mxGeometry x="20" y="20" width="100" height="70" as="geometry" />
        </mxCell>
        <mxCell id="CrKe2ClXHblvtk4IgaAa-109" value="" style="group;movable=0;resizable=0;rotatable=0;deletable=0;editable=0;locked=1;connectable=0;" parent="CrKe2ClXHblvtk4IgaAa-110" vertex="1" connectable="0">
          <mxGeometry width="100" height="70" as="geometry" />
        </mxCell>
        <mxCell id="CrKe2ClXHblvtk4IgaAa-32" value="" style="group;movable=0;resizable=0;rotatable=0;deletable=0;editable=0;locked=1;connectable=0;" parent="CrKe2ClXHblvtk4IgaAa-109" vertex="1" connectable="0">
          <mxGeometry width="100" height="60" as="geometry" />
        </mxCell>
        <mxCell id="CrKe2ClXHblvtk4IgaAa-24" value="" style="pointerEvents=1;verticalLabelPosition=bottom;shadow=0;dashed=0;align=center;html=1;verticalAlign=top;shape=mxgraph.electrical.resistors.variable_resistor_1;rotation=0;movable=0;resizable=0;rotatable=0;deletable=0;editable=0;locked=1;connectable=0;" parent="CrKe2ClXHblvtk4IgaAa-32" vertex="1">
          <mxGeometry width="100" height="60" as="geometry" />
        </mxCell>
        <mxCell id="CrKe2ClXHblvtk4IgaAa-97" value="PT100" style="text;html=1;align=center;verticalAlign=middle;whiteSpace=wrap;rounded=0;movable=0;resizable=0;rotatable=0;deletable=0;editable=0;locked=1;connectable=0;" parent="CrKe2ClXHblvtk4IgaAa-109" vertex="1">
          <mxGeometry x="20" y="40" width="60" height="30" as="geometry" />
        </mxCell>
        <mxCell id="CrKe2ClXHblvtk4IgaAa-29" style="edgeStyle=orthogonalEdgeStyle;rounded=0;orthogonalLoop=1;jettySize=auto;html=1;exitX=1;exitY=0.5;exitDx=0;exitDy=0;exitPerimeter=0;entryX=0;entryY=0.5;entryDx=0;entryDy=0;movable=0;resizable=0;rotatable=0;deletable=0;editable=0;locked=1;connectable=0;" parent="CrKe2ClXHblvtk4IgaAa-110" source="CrKe2ClXHblvtk4IgaAa-24" target="CrKe2ClXHblvtk4IgaAa-2" edge="1">
          <mxGeometry relative="1" as="geometry" />
        </mxCell>
        <mxCell id="CrKe2ClXHblvtk4IgaAa-30" style="edgeStyle=orthogonalEdgeStyle;rounded=0;orthogonalLoop=1;jettySize=auto;html=1;exitX=0;exitY=0.5;exitDx=0;exitDy=0;exitPerimeter=0;entryX=0;entryY=0.5;entryDx=0;entryDy=0;movable=0;resizable=0;rotatable=0;deletable=0;editable=0;locked=1;connectable=0;" parent="CrKe2ClXHblvtk4IgaAa-110" source="CrKe2ClXHblvtk4IgaAa-24" target="CrKe2ClXHblvtk4IgaAa-4" edge="1">
          <mxGeometry relative="1" as="geometry" />
        </mxCell>
        <mxCell id="CrKe2ClXHblvtk4IgaAa-31" style="edgeStyle=orthogonalEdgeStyle;rounded=0;orthogonalLoop=1;jettySize=auto;html=1;exitX=0;exitY=0.5;exitDx=0;exitDy=0;exitPerimeter=0;entryX=0;entryY=0.5;entryDx=0;entryDy=0;movable=0;resizable=0;rotatable=0;deletable=0;editable=0;locked=1;connectable=0;" parent="CrKe2ClXHblvtk4IgaAa-110" source="CrKe2ClXHblvtk4IgaAa-24" target="CrKe2ClXHblvtk4IgaAa-5" edge="1">
          <mxGeometry relative="1" as="geometry" />
        </mxCell>
        <mxCell id="CrKe2ClXHblvtk4IgaAa-111" value="" style="endArrow=classic;html=1;rounded=0;fontFamily=Helvetica;fontSize=12;fontColor=default;exitX=1;exitY=0.5;exitDx=0;exitDy=0;dashed=1;" parent="1" source="CrKe2ClXHblvtk4IgaAa-6" edge="1">
          <mxGeometry width="50" height="50" relative="1" as="geometry">
            <mxPoint x="480" y="210" as="sourcePoint" />
            <mxPoint x="510" y="104" as="targetPoint" />
          </mxGeometry>
        </mxCell>
        <mxCell id="CrKe2ClXHblvtk4IgaAa-112" value="" style="endArrow=classic;html=1;rounded=0;fontFamily=Helvetica;fontSize=12;fontColor=default;exitX=1;exitY=0.5;exitDx=0;exitDy=0;dashed=1;" parent="1" edge="1">
          <mxGeometry width="50" height="50" relative="1" as="geometry">
            <mxPoint x="437.5" y="130" as="sourcePoint" />
            <mxPoint x="510.5" y="130" as="targetPoint" />
          </mxGeometry>
        </mxCell>
        <mxCell id="CrKe2ClXHblvtk4IgaAa-120" value="" style="endArrow=classic;html=1;rounded=0;fontFamily=Helvetica;fontSize=12;fontColor=default;exitX=1;exitY=0.5;exitDx=0;exitDy=0;dashed=1;" parent="1" source="CrKe2ClXHblvtk4IgaAa-8" edge="1">
          <mxGeometry width="50" height="50" relative="1" as="geometry">
            <mxPoint x="470" y="190" as="sourcePoint" />
            <mxPoint x="510" y="160" as="targetPoint" />
          </mxGeometry>
        </mxCell>
        <mxCell id="CrKe2ClXHblvtk4IgaAa-121" value="" style="endArrow=classic;html=1;rounded=0;fontFamily=Helvetica;fontSize=12;fontColor=default;exitX=1;exitY=0.5;exitDx=0;exitDy=0;dashed=1;entryX=-0.001;entryY=0.554;entryDx=0;entryDy=0;entryPerimeter=0;" parent="1" source="CrKe2ClXHblvtk4IgaAa-9" target="CrKe2ClXHblvtk4IgaAa-127" edge="1">
          <mxGeometry width="50" height="50" relative="1" as="geometry">
            <mxPoint x="470" y="240" as="sourcePoint" />
            <mxPoint x="510" y="190" as="targetPoint" />
          </mxGeometry>
        </mxCell>
        <mxCell id="CrKe2ClXHblvtk4IgaAa-122" value="" style="endArrow=classic;html=1;rounded=0;fontFamily=Helvetica;fontSize=12;fontColor=default;exitX=1;exitY=0.5;exitDx=0;exitDy=0;dashed=1;entryX=0;entryY=0.467;entryDx=0;entryDy=0;entryPerimeter=0;" parent="1" source="CrKe2ClXHblvtk4IgaAa-10" target="CrKe2ClXHblvtk4IgaAa-128" edge="1">
          <mxGeometry width="50" height="50" relative="1" as="geometry">
            <mxPoint x="470" y="260" as="sourcePoint" />
            <mxPoint x="500" y="219" as="targetPoint" />
          </mxGeometry>
        </mxCell>
        <mxCell id="CrKe2ClXHblvtk4IgaAa-123" value="" style="endArrow=classic;html=1;rounded=0;fontFamily=Helvetica;fontSize=12;fontColor=default;exitX=1;exitY=0.5;exitDx=0;exitDy=0;dashed=1;" parent="1" source="CrKe2ClXHblvtk4IgaAa-11" edge="1">
          <mxGeometry width="50" height="50" relative="1" as="geometry">
            <mxPoint x="470" y="260" as="sourcePoint" />
            <mxPoint x="510" y="246" as="targetPoint" />
          </mxGeometry>
        </mxCell>
        <mxCell id="CrKe2ClXHblvtk4IgaAa-124" value="5V" style="text;html=1;align=center;verticalAlign=middle;whiteSpace=wrap;rounded=0;fontFamily=Helvetica;fontSize=12;fontColor=default;" parent="1" vertex="1">
          <mxGeometry x="510" y="90" width="60" height="30" as="geometry" />
        </mxCell>
        <mxCell id="CrKe2ClXHblvtk4IgaAa-125" value="GND" style="text;html=1;align=center;verticalAlign=middle;whiteSpace=wrap;rounded=0;fontFamily=Helvetica;fontSize=12;fontColor=default;" parent="1" vertex="1">
          <mxGeometry x="510" y="115" width="60" height="30" as="geometry" />
        </mxCell>
        <mxCell id="CrKe2ClXHblvtk4IgaAa-126" value="3.3V" style="text;html=1;align=center;verticalAlign=middle;whiteSpace=wrap;rounded=0;fontFamily=Helvetica;fontSize=12;fontColor=default;" parent="1" vertex="1">
          <mxGeometry x="510" y="145" width="60" height="30" as="geometry" />
        </mxCell>
        <mxCell id="CrKe2ClXHblvtk4IgaAa-127" value="D23" style="text;html=1;align=center;verticalAlign=middle;whiteSpace=wrap;rounded=0;fontFamily=Helvetica;fontSize=12;fontColor=default;" parent="1" vertex="1">
          <mxGeometry x="510" y="175" width="60" height="30" as="geometry" />
        </mxCell>
        <mxCell id="CrKe2ClXHblvtk4IgaAa-128" value="D19" style="text;html=1;align=center;verticalAlign=middle;whiteSpace=wrap;rounded=0;fontFamily=Helvetica;fontSize=12;fontColor=default;" parent="1" vertex="1">
          <mxGeometry x="510" y="205" width="60" height="30" as="geometry" />
        </mxCell>
        <mxCell id="CrKe2ClXHblvtk4IgaAa-129" value="D18" style="text;html=1;align=center;verticalAlign=middle;whiteSpace=wrap;rounded=0;fontFamily=Helvetica;fontSize=12;fontColor=default;" parent="1" vertex="1">
          <mxGeometry x="510" y="230" width="60" height="30" as="geometry" />
        </mxCell>
        <mxCell id="CrKe2ClXHblvtk4IgaAa-131" value="" style="endArrow=classic;html=1;rounded=0;fontFamily=Helvetica;fontSize=12;fontColor=default;exitX=1;exitY=0.5;exitDx=0;exitDy=0;dashed=1;" parent="1" edge="1">
          <mxGeometry width="50" height="50" relative="1" as="geometry">
            <mxPoint x="440" y="369" as="sourcePoint" />
            <mxPoint x="512" y="369" as="targetPoint" />
          </mxGeometry>
        </mxCell>
        <mxCell id="CrKe2ClXHblvtk4IgaAa-132" value="5V" style="text;html=1;align=center;verticalAlign=middle;whiteSpace=wrap;rounded=0;fontFamily=Helvetica;fontSize=12;fontColor=default;" parent="1" vertex="1">
          <mxGeometry x="512" y="355" width="60" height="30" as="geometry" />
        </mxCell>
        <mxCell id="CrKe2ClXHblvtk4IgaAa-133" value="" style="endArrow=classic;html=1;rounded=0;fontFamily=Helvetica;fontSize=12;fontColor=default;exitX=1;exitY=0.5;exitDx=0;exitDy=0;dashed=1;" parent="1" edge="1">
          <mxGeometry width="50" height="50" relative="1" as="geometry">
            <mxPoint x="440" y="414.75" as="sourcePoint" />
            <mxPoint x="512" y="414.75" as="targetPoint" />
          </mxGeometry>
        </mxCell>
        <mxCell id="CrKe2ClXHblvtk4IgaAa-134" value="34" style="text;html=1;align=center;verticalAlign=middle;whiteSpace=wrap;rounded=0;fontFamily=Helvetica;fontSize=12;fontColor=default;" parent="1" vertex="1">
          <mxGeometry x="510" y="400" width="60" height="30" as="geometry" />
        </mxCell>
        <mxCell id="CrKe2ClXHblvtk4IgaAa-135" value="" style="endArrow=classic;html=1;rounded=0;fontFamily=Helvetica;fontSize=12;fontColor=default;exitX=1;exitY=0.5;exitDx=0;exitDy=0;dashed=1;" parent="1" edge="1">
          <mxGeometry width="50" height="50" relative="1" as="geometry">
            <mxPoint x="440" y="459.75" as="sourcePoint" />
            <mxPoint x="512" y="459.75" as="targetPoint" />
          </mxGeometry>
        </mxCell>
        <mxCell id="CrKe2ClXHblvtk4IgaAa-136" value="GND" style="text;html=1;align=center;verticalAlign=middle;whiteSpace=wrap;rounded=0;fontFamily=Helvetica;fontSize=12;fontColor=default;" parent="1" vertex="1">
          <mxGeometry x="510" y="445" width="60" height="30" as="geometry" />
        </mxCell>
        <mxCell id="cep2qaaJXTKiTPUSwA8Q-2" value="&lt;font style=&quot;font-size: 28px;&quot;&gt;&lt;br&gt;&lt;br&gt;&lt;br&gt;&lt;br&gt;ESP32&lt;/font&gt;" style="rounded=0;whiteSpace=wrap;html=1;" vertex="1" parent="1">
          <mxGeometry x="390" y="780" width="90" height="200" as="geometry" />
        </mxCell>
        <mxCell id="cep2qaaJXTKiTPUSwA8Q-3" value="&lt;h1 style=&quot;box-sizing: inherit; margin: 0px; padding: 0px; border: 0px; font-family: -apple-system, system-ui, BlinkMacSystemFont, &amp;quot;Segoe UI&amp;quot;, Helvetica, Arial, sans-serif, &amp;quot;Apple Color Emoji&amp;quot;, &amp;quot;Segoe UI Emoji&amp;quot;, &amp;quot;Segoe UI Symbol&amp;quot;; font-weight: 400; line-height: 1.2em; text-align: start; background-color: rgb(255, 255, 255);&quot; class=&quot;entry-title&quot;&gt;&lt;font style=&quot;font-size: 18px;&quot;&gt;MAX31865&lt;/font&gt;&lt;/h1&gt;" style="rounded=0;whiteSpace=wrap;html=1;rotation=-90;" vertex="1" parent="1">
          <mxGeometry x="220" y="790" width="120" height="60" as="geometry" />
        </mxCell>
        <mxCell id="cep2qaaJXTKiTPUSwA8Q-4" value="&lt;font style=&quot;font-size: 18px;&quot;&gt;Current &lt;br&gt;Loop 1&lt;/font&gt;" style="rounded=0;whiteSpace=wrap;html=1;rotation=-90;" vertex="1" parent="1">
          <mxGeometry x="140" y="790" width="120" height="60" as="geometry" />
        </mxCell>
        <mxCell id="cep2qaaJXTKiTPUSwA8Q-7" style="edgeStyle=orthogonalEdgeStyle;rounded=0;orthogonalLoop=1;jettySize=auto;html=1;exitX=0.58;exitY=0.135;exitDx=0;exitDy=0;exitPerimeter=0;entryX=0;entryY=0.5;entryDx=0;entryDy=0;jumpStyle=arc;" edge="1" parent="1" source="cep2qaaJXTKiTPUSwA8Q-5" target="cep2qaaJXTKiTPUSwA8Q-15">
          <mxGeometry relative="1" as="geometry" />
        </mxCell>
        <mxCell id="cep2qaaJXTKiTPUSwA8Q-10" style="edgeStyle=orthogonalEdgeStyle;rounded=0;orthogonalLoop=1;jettySize=auto;html=1;exitX=0.58;exitY=0.135;exitDx=0;exitDy=0;exitPerimeter=0;entryX=0;entryY=0.75;entryDx=0;entryDy=0;jumpStyle=arc;" edge="1" parent="1" source="cep2qaaJXTKiTPUSwA8Q-5" target="cep2qaaJXTKiTPUSwA8Q-4">
          <mxGeometry relative="1" as="geometry" />
        </mxCell>
        <mxCell id="cep2qaaJXTKiTPUSwA8Q-11" value="" style="edgeStyle=orthogonalEdgeStyle;rounded=0;orthogonalLoop=1;jettySize=auto;html=1;entryX=0.5;entryY=1;entryDx=0;entryDy=0;exitX=0.58;exitY=0.135;exitDx=0;exitDy=0;exitPerimeter=0;jumpStyle=arc;" edge="1" parent="1" source="cep2qaaJXTKiTPUSwA8Q-5" target="cep2qaaJXTKiTPUSwA8Q-12">
          <mxGeometry relative="1" as="geometry">
            <Array as="points">
              <mxPoint x="300" y="1003" />
            </Array>
          </mxGeometry>
        </mxCell>
        <mxCell id="cep2qaaJXTKiTPUSwA8Q-60" style="edgeStyle=orthogonalEdgeStyle;rounded=0;orthogonalLoop=1;jettySize=auto;html=1;exitX=0.58;exitY=0.135;exitDx=0;exitDy=0;exitPerimeter=0;entryX=0.5;entryY=1;entryDx=0;entryDy=0;jumpStyle=arc;jumpSize=10;" edge="1" parent="1" source="cep2qaaJXTKiTPUSwA8Q-5" target="cep2qaaJXTKiTPUSwA8Q-56">
          <mxGeometry relative="1" as="geometry">
            <Array as="points">
              <mxPoint x="301" y="930" />
              <mxPoint x="140" y="930" />
            </Array>
          </mxGeometry>
        </mxCell>
        <mxCell id="cep2qaaJXTKiTPUSwA8Q-5" value="" style="pointerEvents=1;verticalLabelPosition=bottom;shadow=0;dashed=0;align=center;html=1;verticalAlign=top;shape=mxgraph.electrical.signal_sources.dc_source_1;" vertex="1" parent="1">
          <mxGeometry x="260" y="992.5" width="70" height="75" as="geometry" />
        </mxCell>
        <mxCell id="cep2qaaJXTKiTPUSwA8Q-19" style="edgeStyle=orthogonalEdgeStyle;rounded=0;orthogonalLoop=1;jettySize=auto;html=1;exitX=0.5;exitY=0;exitDx=0;exitDy=0;exitPerimeter=0;entryX=0.5;entryY=1;entryDx=0;entryDy=0;jumpStyle=arc;jumpSize=10;" edge="1" parent="1" source="cep2qaaJXTKiTPUSwA8Q-6" target="cep2qaaJXTKiTPUSwA8Q-13">
          <mxGeometry relative="1" as="geometry" />
        </mxCell>
        <mxCell id="cep2qaaJXTKiTPUSwA8Q-20" style="rounded=0;orthogonalLoop=1;jettySize=auto;html=1;exitX=0.5;exitY=0;exitDx=0;exitDy=0;exitPerimeter=0;entryX=0;entryY=0.5;entryDx=0;entryDy=0;edgeStyle=orthogonalEdgeStyle;elbow=vertical;jumpStyle=arc;jumpSize=10;" edge="1" parent="1" source="cep2qaaJXTKiTPUSwA8Q-6" target="cep2qaaJXTKiTPUSwA8Q-17">
          <mxGeometry relative="1" as="geometry" />
        </mxCell>
        <mxCell id="cep2qaaJXTKiTPUSwA8Q-58" style="edgeStyle=orthogonalEdgeStyle;rounded=0;orthogonalLoop=1;jettySize=auto;html=1;exitX=0.5;exitY=0;exitDx=0;exitDy=0;exitPerimeter=0;entryX=0.5;entryY=1;entryDx=0;entryDy=0;jumpStyle=arc;" edge="1" parent="1" source="cep2qaaJXTKiTPUSwA8Q-6" target="cep2qaaJXTKiTPUSwA8Q-57">
          <mxGeometry relative="1" as="geometry" />
        </mxCell>
        <mxCell id="cep2qaaJXTKiTPUSwA8Q-6" value="GND" style="pointerEvents=1;verticalLabelPosition=bottom;shadow=0;dashed=0;align=center;html=1;verticalAlign=top;shape=mxgraph.electrical.signal_sources.signal_ground;" vertex="1" parent="1">
          <mxGeometry x="120" y="1015" width="45" height="30" as="geometry" />
        </mxCell>
        <mxCell id="cep2qaaJXTKiTPUSwA8Q-12" value="Vcc" style="ellipse;whiteSpace=wrap;html=1;aspect=fixed;" vertex="1" parent="1">
          <mxGeometry x="290" y="860" width="20" height="20" as="geometry" />
        </mxCell>
        <mxCell id="cep2qaaJXTKiTPUSwA8Q-13" value="Gnd" style="ellipse;whiteSpace=wrap;html=1;aspect=fixed;" vertex="1" parent="1">
          <mxGeometry x="260" y="860" width="20" height="20" as="geometry" />
        </mxCell>
        <mxCell id="cep2qaaJXTKiTPUSwA8Q-14" value="Vcc" style="ellipse;whiteSpace=wrap;html=1;aspect=fixed;" vertex="1" parent="1">
          <mxGeometry x="210" y="860" width="20" height="20" as="geometry" />
        </mxCell>
        <mxCell id="cep2qaaJXTKiTPUSwA8Q-15" value="Vin" style="ellipse;whiteSpace=wrap;html=1;aspect=fixed;" vertex="1" parent="1">
          <mxGeometry x="390" y="910" width="20" height="20" as="geometry" />
        </mxCell>
        <mxCell id="cep2qaaJXTKiTPUSwA8Q-16" value="Gnd" style="ellipse;whiteSpace=wrap;html=1;aspect=fixed;" vertex="1" parent="1">
          <mxGeometry x="180" y="860" width="20" height="20" as="geometry" />
        </mxCell>
        <mxCell id="cep2qaaJXTKiTPUSwA8Q-17" value="Gnd" style="ellipse;whiteSpace=wrap;html=1;aspect=fixed;" vertex="1" parent="1">
          <mxGeometry x="390" y="960" width="20" height="20" as="geometry" />
        </mxCell>
        <mxCell id="cep2qaaJXTKiTPUSwA8Q-18" style="edgeStyle=orthogonalEdgeStyle;rounded=0;orthogonalLoop=1;jettySize=auto;html=1;exitX=0.5;exitY=0;exitDx=0;exitDy=0;exitPerimeter=0;entryX=0.51;entryY=1.167;entryDx=0;entryDy=0;entryPerimeter=0;jumpStyle=arc;jumpSize=10;" edge="1" parent="1" source="cep2qaaJXTKiTPUSwA8Q-6" target="cep2qaaJXTKiTPUSwA8Q-16">
          <mxGeometry relative="1" as="geometry" />
        </mxCell>
        <mxCell id="cep2qaaJXTKiTPUSwA8Q-21" value="" style="endArrow=none;html=1;rounded=0;endFill=0;startArrow=classic;startFill=1;dashed=1;" edge="1" parent="1">
          <mxGeometry width="50" height="50" relative="1" as="geometry">
            <mxPoint x="480" y="794.86" as="sourcePoint" />
            <mxPoint x="532" y="794.86" as="targetPoint" />
          </mxGeometry>
        </mxCell>
        <mxCell id="cep2qaaJXTKiTPUSwA8Q-31" value="CS" style="text;html=1;align=center;verticalAlign=middle;whiteSpace=wrap;rounded=0;" vertex="1" parent="1">
          <mxGeometry x="520" y="780" width="60" height="30" as="geometry" />
        </mxCell>
        <mxCell id="cep2qaaJXTKiTPUSwA8Q-32" value="" style="endArrow=none;html=1;rounded=0;endFill=0;startArrow=classic;startFill=1;dashed=1;" edge="1" parent="1">
          <mxGeometry width="50" height="50" relative="1" as="geometry">
            <mxPoint x="480" y="814.86" as="sourcePoint" />
            <mxPoint x="532" y="814.86" as="targetPoint" />
          </mxGeometry>
        </mxCell>
        <mxCell id="cep2qaaJXTKiTPUSwA8Q-33" value="D1" style="text;html=1;align=center;verticalAlign=middle;whiteSpace=wrap;rounded=0;" vertex="1" parent="1">
          <mxGeometry x="520" y="800" width="60" height="30" as="geometry" />
        </mxCell>
        <mxCell id="cep2qaaJXTKiTPUSwA8Q-34" value="" style="endArrow=none;html=1;rounded=0;endFill=0;startArrow=classic;startFill=1;dashed=1;" edge="1" parent="1">
          <mxGeometry width="50" height="50" relative="1" as="geometry">
            <mxPoint x="480" y="834.86" as="sourcePoint" />
            <mxPoint x="532" y="834.86" as="targetPoint" />
          </mxGeometry>
        </mxCell>
        <mxCell id="cep2qaaJXTKiTPUSwA8Q-35" value="D0" style="text;html=1;align=center;verticalAlign=middle;whiteSpace=wrap;rounded=0;" vertex="1" parent="1">
          <mxGeometry x="520" y="820" width="60" height="30" as="geometry" />
        </mxCell>
        <mxCell id="cep2qaaJXTKiTPUSwA8Q-36" value="" style="endArrow=none;html=1;rounded=0;endFill=0;startArrow=classic;startFill=1;dashed=1;" edge="1" parent="1">
          <mxGeometry width="50" height="50" relative="1" as="geometry">
            <mxPoint x="480" y="854.86" as="sourcePoint" />
            <mxPoint x="532" y="854.86" as="targetPoint" />
          </mxGeometry>
        </mxCell>
        <mxCell id="cep2qaaJXTKiTPUSwA8Q-37" value="CLK" style="text;html=1;align=center;verticalAlign=middle;whiteSpace=wrap;rounded=0;" vertex="1" parent="1">
          <mxGeometry x="520" y="840" width="60" height="30" as="geometry" />
        </mxCell>
        <mxCell id="cep2qaaJXTKiTPUSwA8Q-38" value="" style="endArrow=none;html=1;rounded=0;endFill=0;startArrow=classic;startFill=1;dashed=1;" edge="1" parent="1">
          <mxGeometry width="50" height="50" relative="1" as="geometry">
            <mxPoint x="480" y="874.86" as="sourcePoint" />
            <mxPoint x="532" y="874.86" as="targetPoint" />
          </mxGeometry>
        </mxCell>
        <mxCell id="cep2qaaJXTKiTPUSwA8Q-39" value="Vout_1" style="text;html=1;align=center;verticalAlign=middle;whiteSpace=wrap;rounded=0;" vertex="1" parent="1">
          <mxGeometry x="520" y="860" width="60" height="30" as="geometry" />
        </mxCell>
        <mxCell id="cep2qaaJXTKiTPUSwA8Q-40" value="" style="endArrow=none;html=1;rounded=0;endFill=0;startArrow=classic;startFill=1;dashed=1;" edge="1" parent="1">
          <mxGeometry width="50" height="50" relative="1" as="geometry">
            <mxPoint x="480" y="894.86" as="sourcePoint" />
            <mxPoint x="532" y="894.86" as="targetPoint" />
          </mxGeometry>
        </mxCell>
        <mxCell id="cep2qaaJXTKiTPUSwA8Q-41" value="Vout_2" style="text;html=1;align=center;verticalAlign=middle;whiteSpace=wrap;rounded=0;" vertex="1" parent="1">
          <mxGeometry x="520" y="880" width="60" height="30" as="geometry" />
        </mxCell>
        <mxCell id="cep2qaaJXTKiTPUSwA8Q-48" value="3.3V" style="ellipse;whiteSpace=wrap;html=1;aspect=fixed;" vertex="1" parent="1">
          <mxGeometry x="460" y="785" width="20" height="20" as="geometry" />
        </mxCell>
        <mxCell id="cep2qaaJXTKiTPUSwA8Q-50" value="D23" style="ellipse;whiteSpace=wrap;html=1;aspect=fixed;" vertex="1" parent="1">
          <mxGeometry x="460" y="805" width="20" height="20" as="geometry" />
        </mxCell>
        <mxCell id="cep2qaaJXTKiTPUSwA8Q-51" value="D19" style="ellipse;whiteSpace=wrap;html=1;aspect=fixed;" vertex="1" parent="1">
          <mxGeometry x="460" y="825" width="20" height="20" as="geometry" />
        </mxCell>
        <mxCell id="cep2qaaJXTKiTPUSwA8Q-52" value="D18" style="ellipse;whiteSpace=wrap;html=1;aspect=fixed;" vertex="1" parent="1">
          <mxGeometry x="460" y="845" width="20" height="20" as="geometry" />
        </mxCell>
        <mxCell id="cep2qaaJXTKiTPUSwA8Q-53" value="D34" style="ellipse;whiteSpace=wrap;html=1;aspect=fixed;" vertex="1" parent="1">
          <mxGeometry x="460" y="865" width="20" height="20" as="geometry" />
        </mxCell>
        <mxCell id="cep2qaaJXTKiTPUSwA8Q-54" value="D35" style="ellipse;whiteSpace=wrap;html=1;aspect=fixed;" vertex="1" parent="1">
          <mxGeometry x="460" y="885" width="20" height="20" as="geometry" />
        </mxCell>
        <mxCell id="cep2qaaJXTKiTPUSwA8Q-55" value="&lt;font style=&quot;font-size: 18px;&quot;&gt;Current &lt;br&gt;Loop 1&lt;/font&gt;" style="rounded=0;whiteSpace=wrap;html=1;rotation=-90;" vertex="1" parent="1">
          <mxGeometry x="60" y="790" width="120" height="60" as="geometry" />
        </mxCell>
        <mxCell id="cep2qaaJXTKiTPUSwA8Q-56" value="Vcc" style="ellipse;whiteSpace=wrap;html=1;aspect=fixed;" vertex="1" parent="1">
          <mxGeometry x="130" y="860" width="20" height="20" as="geometry" />
        </mxCell>
        <mxCell id="cep2qaaJXTKiTPUSwA8Q-57" value="Gnd" style="ellipse;whiteSpace=wrap;html=1;aspect=fixed;" vertex="1" parent="1">
          <mxGeometry x="100" y="860" width="20" height="20" as="geometry" />
        </mxCell>
        <mxCell id="cep2qaaJXTKiTPUSwA8Q-61" value="&lt;font style=&quot;font-size: 18px;&quot;&gt;+&lt;/font&gt;" style="text;html=1;align=center;verticalAlign=middle;whiteSpace=wrap;rounded=0;" vertex="1" parent="1">
          <mxGeometry x="50" y="290" width="60" height="30" as="geometry" />
        </mxCell>
        <mxCell id="cep2qaaJXTKiTPUSwA8Q-62" value="&lt;font style=&quot;font-size: 18px;&quot;&gt;-&lt;/font&gt;" style="text;html=1;align=center;verticalAlign=middle;whiteSpace=wrap;rounded=0;" vertex="1" parent="1">
          <mxGeometry x="-20" y="290" width="60" height="30" as="geometry" />
        </mxCell>
        <mxCell id="cep2qaaJXTKiTPUSwA8Q-63" value="&lt;font style=&quot;font-size: 18px;&quot;&gt;+&lt;/font&gt;" style="text;html=1;align=center;verticalAlign=middle;whiteSpace=wrap;rounded=0;" vertex="1" parent="1">
          <mxGeometry x="75" y="20" width="60" height="30" as="geometry" />
        </mxCell>
        <mxCell id="cep2qaaJXTKiTPUSwA8Q-64" value="&lt;font style=&quot;font-size: 18px;&quot;&gt;-&lt;/font&gt;" style="text;html=1;align=center;verticalAlign=middle;whiteSpace=wrap;rounded=0;" vertex="1" parent="1">
          <mxGeometry x="5" y="20" width="60" height="30" as="geometry" />
        </mxCell>
      </root>
    </mxGraphModel>
  </diagram>
</mxfile>
